<svg width="16" height="16" viewBox="0 0 16 16" fill="none" xmlns="http://www.w3.org/2000/svg">
<path d="M15.625 7.8125C15.625 8.06114 15.5262 8.2996 15.3504 8.47541C15.1746 8.65123 14.9361 8.75 14.6875 8.75H8.75V14.6875C8.75 14.9361 8.65123 15.1746 8.47541 15.3504C8.2996 15.5262 8.06114 15.625 7.8125 15.625C7.56386 15.625 7.3254 15.5262 7.14959 15.3504C6.97377 15.1746 6.875 14.9361 6.875 14.6875V8.75H0.9375C0.68886 8.75 0.450403 8.65123 0.274587 8.47541C0.0987721 8.2996 0 8.06114 0 7.8125C0 7.56386 0.0987721 7.3254 0.274587 7.14959C0.450403 6.97377 0.68886 6.875 0.9375 6.875H6.875V0.9375C6.875 0.68886 6.97377 0.450403 7.14959 0.274587C7.3254 0.0987721 7.56386 0 7.8125 0C8.06114 0 8.2996 0.0987721 8.47541 0.274587C8.65123 0.450403 8.75 0.68886 8.75 0.9375V6.875H14.6875C14.9361 6.875 15.1746 6.97377 15.3504 7.14959C15.5262 7.3254 15.625 7.56386 15.625 7.8125Z" fill="black"/>
</svg>
